<?xml version="1.0" encoding="UTF-8"?>
<svg width="106px" height="139px" viewBox="0 0 106 139" version="1.1" xmlns="http://www.w3.org/2000/svg" xmlns:xlink="http://www.w3.org/1999/xlink">
    <!-- Generator: Sketch 63.1 (92452) - https://sketch.com -->
    <title>cotacaoseguros_01</title>
    <desc>Created with Sketch.</desc>
    <g id="RESID---DESK" stroke="none" stroke-width="1" fill="none" fill-rule="evenodd">
        <g id="00.home.1" transform="translate(-383.000000, -1276.000000)">
            <g id="Group-3" transform="translate(367.000000, 1208.000000)">
                <g id="cotacaoseguros_01" transform="translate(16.000000, 68.000000)">
                    <path d="M75.2213097,10.0173227 C73.4024087,9.03450143 63.3342596,5.77235429 62,4 C60.7345475,2.32265176 61.3076911,10.8722123 60.2486599,9.05071693 C59.4346307,7.66089934 58.4013974,6.44067779 57.1972142,5.44703907 C56.3894554,4.71466153 55.4211992,4.22571608 54.3880892,4.02850042 C53.352991,3.88762937 52.2101947,4.26765358 51.6028971,5.19805769 C50.8849099,6.29881747 50.8879015,7.89426394 51.1990293,9.14572298 C51.5251152,10.4561513 52.4644818,11.3898315 52.8593748,12.6249102 C53.1585361,13.5716946 53.1316116,14.7346997 53.3499994,15.7240731 C53.8436156,17.9747337 61.8996551,12.1467687 63.6018832,13.5194423 C64.2919115,14.0742896 65.0776224,14.4699491 65.9114087,14.6824475 C66.4678488,14.8233185 67.0601883,14.754521 67.6076535,14.937981 C68.2059762,15.1378213 68.7654079,15.632508 69.3098816,15.9797715 C70.6182138,16.8118935 71.9315321,17.6330952 73.2498364,18.4433767 C75.8884395,20.0639397 78.5499782,21.6375457 81.2344527,23.1641947 C81.6712282,23.4131761 82.1109954,23.6621575 82.5537542,23.9013106 C79.2300717,27.1020318 65.0827318,41.968841 61.9116216,45.3661264 C59.0636056,48.4292526 68.8611396,57.2549873 70.0398352,55.8495529 C74.9550561,49.9853862 86.5655078,37.6280472 91.067886,31.3576478 C92.3722294,29.5394285 93.9757342,26.6163749 93.9996671,24.16915 C94.0206084,22.1019494 92.9767771,20.8163907 91.7080912,19.3336696 C89.2360304,16.4445565 83.7404366,13.3391076 75.2213097,10.0173227 Z" id="Path" fill="#975654" fill-rule="nonzero"></path>
                    <path d="M81.4222668,137.945976 C84.4594951,137.775622 88.1268661,136.7188 88.8495891,133.595653 C90.5279787,126.339857 77.7041261,123.144153 73.0751154,122.784518 C71.2055924,122.639402 69.32711,122.70565 67.4605735,122.532142 C63.3213421,122.150424 54.6426938,116.188053 50.5243675,117.09345 C47.5379091,117.749626 49.3984727,123.677296 52.1728926,126.743658 C55.8790876,130.84476 60.8754326,132.273836 65.5791047,134.519978 C70.8800685,137.053198 75.4403905,138.280373 81.4222668,137.945976 Z" id="Path" fill="#975654" fill-rule="nonzero"></path>
                    <path d="M82.047932,138.712855 C84.9661863,138.248329 88.9600793,137.422506 89.8268257,133.919209 C91.6289101,126.615836 78.8771364,123.351253 74.2783916,122.535108 C72.5324275,122.212521 68.4980033,121.051207 67.8962692,123.67384 C67.4784849,125.499684 68.4824143,126.957778 67.3724799,128.709426 C66.5836783,129.951387 65.3116187,130.773984 64.5415238,132.0353 C63.7714289,133.296616 63.7870179,134.264378 64.8190074,135.32569 C66.8268662,137.387022 69.8448899,138.080584 72.5448987,138.503173 C75.7001053,138.996732 78.8740186,139.219317 82.047932,138.712855 Z" id="Path" fill="#D1D3D4" fill-rule="nonzero"></path>
                    <path d="M2.98739466,97.7801838 C5.52589349,95.2514959 9.13296541,94.5462579 12.2930468,95.9607859 L20.015261,99.4120489 L62,118.165337 L62,118.662135 C62,124.584226 61.9527332,127.505791 58.5140732,132 L5.94156994,114.589052 C1.28695413,112.735345 -1.13825988,107.031541 0.523612483,101.846686 C3.14101178,93.6840709 14.4791365,90.4203407 21.2766938,88.8411164 C26.369692,87.6599882 31.9619458,87.3934941 36.4877423,90.245968 C41.0135388,93.0984419 43.7845552,99.9417471 41.2144228,104.968944 C39.3119339,108.666961 35.3060722,110.282376 31.5572238,111.114759 C26.1804782,112.285219 20.6701612,112.489594 15.2354054,111.720128 C12.3048635,111.312162 9.279788,110.575191 6.98143964,108.509039 C4.68309127,106.442887 3.3537124,102.71855 4.61809942,99.7476341" id="Path" fill="#F47424" fill-rule="nonzero"></path>
                    <path d="M25.5777332,137.945976 C22.5405049,137.775622 18.8731339,136.7188 18.1504109,133.595653 C16.4720213,126.339857 29.2958739,123.144153 33.9248846,122.784518 C35.7944076,122.639402 37.67289,122.70565 39.5394265,122.532142 C43.6786579,122.150424 52.3573062,116.188053 56.4756325,117.09345 C59.4620909,117.749626 57.6015273,123.677296 54.8271074,126.743658 C51.1209124,130.84476 46.1245674,132.273836 41.4208953,134.519978 C36.1169451,137.053198 31.5596095,138.280373 25.5777332,137.945976 Z" id="Path" fill="#975654" fill-rule="nonzero"></path>
                    <path d="M24.952068,138.712855 C22.0338137,138.248329 18.0399207,137.422506 17.1731743,133.919209 C15.3710899,126.615836 28.1228636,123.351253 32.7216084,122.535108 C34.4675725,122.212521 38.5019967,121.051207 39.1037308,123.67384 C39.5215151,125.499684 38.5175857,126.957778 39.6275201,128.709426 C40.4163217,129.951387 41.6883813,130.773984 42.4584762,132.0353 C43.2285711,133.296616 43.2129821,134.264378 42.1809926,135.32569 C40.1731338,137.387022 37.1551101,138.080584 34.4551013,138.503173 C31.2998947,138.996732 28.1259814,139.219317 24.952068,138.712855 Z" id="Path" fill="#D1D3D4" fill-rule="nonzero"></path>
                    <path d="M103.027235,97.7750656 C100.486182,95.2407743 96.8728885,94.535144 93.7093218,95.9553955 L85.9867396,99.4071747 L44,118.163268 L44,118.66014 C44,124.583117 44.0472691,127.501828 47.4860929,132 L100.058147,114.593029 C104.712985,112.739044 107.138314,107.034388 105.476363,101.848757 C102.858839,93.684921 91.5201736,90.4207027 84.7222924,88.8412422 C79.6290515,87.6599374 74.0365312,87.3934034 69.510519,90.2463039 C64.9845069,93.0992044 62.2133584,99.9435332 64.7836134,104.971482 C66.6861929,108.670052 70.6922455,110.285709 74.4412725,111.118216 C79.8182743,112.288851 85.3288539,112.493257 90.7638687,111.723676 C93.6945502,111.315649 96.7197698,110.578567 99.0182277,108.512106 C101.316686,106.445646 102.646128,102.720751 101.381681,99.7493912" id="Path" fill="#F47424" fill-rule="nonzero"></path>
                    <path d="M35,109 L35,109 C46.4990224,106.048805 58.5009776,106.048805 70,109 L70,109 L70,94 L35,94 L35,109 Z" id="Path" fill="#F47424" fill-rule="nonzero"></path>
                    <rect id="Rectangle" fill="#E5E0DC" fill-rule="nonzero" x="28" y="100" width="49" height="5" rx="2.5"></rect>
                    <path d="M32.6321459,91.8794055 C31.5431736,90.0871145 30.8676614,88.2948234 30.9229835,86.6063847 C29.4593737,85.7465316 27.9909111,84.9000789 26.5175956,84.0670265 C24.3250926,82.8341982 20.1118763,79.8492798 18.4929763,78.7404044 C18.3466134,78.6341045 18.2489333,78.4584035 18.2264265,78.2609511 C18.2039198,78.0634987 18.2589191,77.8647595 18.3765087,77.7186309 C21.5269579,74.0100959 26.683562,66.8442817 29.4263746,63.3769522 C32.0468961,60.0704264 23.1604164,51.6717839 22.0830908,53.1793184 C17.5990873,59.4607124 12.6200964,65.3166467 8.5437295,72.0033999 C7.37905326,73.9397443 5.90573781,76.0234921 6.00473529,78.505899 C6.08917432,80.6164474 7.09661927,81.9732285 8.47093724,83.2965088 C11.400098,86.1172735 15.0571814,87.929665 18.5453867,89.631504 L20.2196088,90.4422226 L25.018075,92.7872764 C26.278837,93.4003404 27.6385965,93.7621487 28.7712442,94.6599693 C29.26416,95.0544375 29.722491,95.5032355 30.1397388,96 C31.8372544,94.9715264 33.8375858,93.5410436 32.6321459,91.8794055 Z" id="Path" fill="#975654" fill-rule="nonzero"></path>
                    <path d="M72.7398941,35 C72.7398941,35 64.0139117,40.5093737 61.7210174,40.6940997 C60.2130779,40.8172504 58.9884304,40.5093737 57.5513139,40.3700189 C56.1141974,40.2306642 54.4823177,40.6940997 53.0511031,40.8820666 C50.7405031,40.5579858 48.4859712,40.2825171 48.429903,40.2922395 C45.8301091,40.7427118 39.323247,42.2788549 38.6091152,42.596454 C33.7577404,44.1293562 29.1188346,46.3428281 24.8753572,49.7456766 C23.3320062,50.9869061 19.8587287,54.5809622 19,56.4541492 L19.3777226,57.0763844 C21.4030676,60.4039925 24.1382922,63.1375277 27.3453089,65.0390497 L27.3453089,65.0390497 C28.9329243,63.5774453 30.3257764,62.2098243 31.8779802,60.7611831 C31.9622265,60.6938711 32.0725488,60.6803335 32.1682454,60.7255647 C32.263942,60.770796 32.3308298,60.8680925 32.3442316,60.981558 L32.804581,70.166008 C35.1240339,74.4082257 74.1179915,70.3410117 74.3039018,67.5085454 C74.7052321,61.6394421 76.2574359,53.3915856 76.7590988,51.6545125 C77.6709448,48.4914839 82,43.2737829 82,43.2737829 C81.858354,40.1852929 75.7469202,35.6935329 72.7398941,35 Z" id="Path" fill="#0C7AB6" fill-rule="nonzero"></path>
                    <path d="M47,40.5367269 C48.3129445,36.3307899 48.04789,32.1248529 47.5516833,27.9189159 C47.6550511,24.6196243 50.2876878,22 53.5,22 C56.7123122,22 59.3449489,24.6196243 59.4483167,27.9189159 C58.95211,32.1248529 58.6839734,36.3307899 60,40.5367269 C58.9675202,43.1020952 56.2337601,44.0775685 53.5,43.9952233 C50.7662399,44.0775685 48.0293978,43.1020952 47,40.5367269 Z" id="Path" fill="#773C3B"></path>
                    <path d="M65,16.8204846 C65,8.70450493 60.0119048,2 52.5,2 C44.0654762,2 40,8.70450493 40,16.8204846 C40,22.8930338 42.327381,30.9095686 47.0654762,35.2787245 C50.9345238,38.8523218 54.0297619,38.910064 58.0059524,35.4294956 C62.9732143,31.0988345 65,22.9668154 65,16.8204846 Z" id="Path" fill="#975654"></path>
                    <path d="M44.9777785,18.3365158 C45.0372733,17.5091858 44.9770364,16.6745019 44.8002635,15.8767445 C44.6021671,15.0195514 44.4632423,14.0844317 44.1210758,13.325494 C43.8791504,12.7353656 43.5564239,12.2092629 43.1691839,11.7737374 C42.3819435,10.9436493 41.2628274,10.5845091 40.5141773,11.7093632 C39.9327514,12.5801087 39.9430421,13.9794002 40.0716762,15.097478 C40.2366645,16.5083242 40.6287546,17.8564223 41.2216645,19.051408 C41.6873197,19.9797515 42.3819435,20.969081 43.2309282,20.9995741 C44.3680531,21.026679 44.8697259,19.7561359 44.9777785,18.3365158 Z" id="Path" fill="#975654"></path>
                    <path d="M62.0233862,18.3365158 C61.9621254,17.509402 62.0214918,16.6744867 62.1982876,15.8767445 C62.3989097,15.0195514 62.5326578,14.0844317 62.8798885,13.325494 C63.1210581,12.7347531 63.4438067,12.2084912 63.8315576,11.7737374 C64.6211859,10.9436493 65.7400402,10.5845091 66.485943,11.7093632 C67.0672328,12.5801087 67.0569445,13.9794002 66.9283406,15.097478 C66.7634822,16.5078191 66.37242,17.8557129 65.7811934,19.051408 C65.3156471,19.9797515 64.6211859,20.969081 63.7723998,20.9995741 C62.6329689,21.026679 62.1314135,19.7561359 62.0233862,18.3365158 Z" id="Path" fill="#975654"></path>
                    <rect id="Rectangle" fill="#E5E0DC" fill-rule="nonzero" x="28" y="67" width="49" height="33" rx="7.55"></rect>
                    <polygon id="Path" fill="#F47424" fill-rule="nonzero" points="47 112.253014 40.9297729 120 8 110.715516 17.5225176 100"></polygon>
                    <polygon id="Path" fill="#F47424" fill-rule="nonzero" points="60 112.253014 65.9145803 120 98 110.715516 88.718704 100"></polygon>
                    <line x1="27" y1="99" x2="72" y2="99" id="Path" fill="#CE5128" fill-rule="nonzero"></line>
                    <rect id="Rectangle" fill="#939598" fill-rule="nonzero" x="32" y="99" width="43" height="1" rx="0.5"></rect>
                    <path d="M42.1506964,18.5960465 C41.7346444,17.642035 41.4969004,16.5353816 42.1061194,16.2237379 C42.3600787,16.0804817 42.5991545,15.9088636 42.8193514,15.7117517 C43.453531,15.1875897 43.8927937,14.4391288 44.0585919,13.6002062 C44.5400235,11.517281 45.9843182,10.1975651 48.0408037,10.938514 C48.7570075,11.1960972 49.3483956,11.6126822 50.7154236,11.9720265 C51.8298485,12.2645901 53.3900434,11.7367037 53.7318004,10.4805885 C54.0735574,9.22447334 54.7778739,9.46933629 55.6010625,9.95270213 C56.6144462,10.5441893 57.6397172,11.3328388 59.6129923,10.191205 C59.8896318,10.4007893 60.2063281,10.5419924 60.5401938,10.60461 C61.5357468,10.8208526 62.4272867,10.6427705 62.6382845,11.9624864 C62.8819721,13.4698246 62.9116901,14.6464388 64.1539024,15.7117517 C64.3741127,15.9088445 64.6131865,16.0804612 64.8671344,16.2237379 C65.4614944,16.5417417 65.2386094,17.6261348 64.8225574,18.5960465 C63.5535989,21.5566623 69.3218623,21.9319068 67.9875242,18.8758899 C67.5922748,17.969579 67.3723617,17.9218784 68.2014938,17.1014285 C69.5298883,15.7689924 69.1673288,13.6765271 67.3634463,12.7829363 C67.1611688,12.6988383 67.0254488,12.493513 67.0187175,12.26141 C67.0187175,12.013367 67.2237717,11.765324 67.4139669,11.4505002 C68.2163528,10.1244242 67.2594333,8.73474742 65.9280669,8.27046181 C65.7408435,8.20686105 65.5506484,8.14326028 65.3515378,8.09237966 C64.1984794,7.80617621 63.8894122,7.33553052 63.9161584,6.16527639 C63.9577636,4.23499307 62.6769179,2.75627521 61.042428,2.80715583 C59.0929273,2.86757656 58.5669187,3.3096019 58.2786541,2.42237118 C58.029023,1.64962185 58.1241206,1.15035582 57.3871142,0.514348134 C56.4272228,-0.293381622 54.9205203,-0.121659548 54.2221474,0.832351975 C53.9249674,1.25211705 53.737744,1.58284104 53.5,1.5383205 C53.262256,1.58284104 53.0869198,1.25529708 52.7778526,0.832351975 C52.0794797,-0.121659548 50.5727772,-0.290201584 49.6128858,0.514348134 C48.8639922,1.15035582 48.956118,1.65280188 48.7213459,2.42237118 C48.4241659,3.3096019 47.9100445,2.86757656 45.957572,2.80715583 C44.3230821,2.75627521 43.0422364,4.23499307 43.0838416,6.16527639 C43.107616,7.33553052 42.7866616,7.80617621 41.6484622,8.09237966 C41.4493516,8.14008024 41.2591565,8.20368101 41.0719331,8.27046181 C39.7435385,8.72520731 38.7895908,10.1148841 39.5860331,11.4505002 C39.7762283,11.7685041 39.9842543,12.013367 39.9812825,12.26141 C39.9745512,12.493513 39.8388312,12.6988383 39.6365537,12.7829363 C37.8326712,13.6765271 37.4701117,15.7689924 38.7985062,17.1014285 C39.6246665,17.9314185 39.3928662,17.969579 39.0124758,18.8758899 C37.6513915,21.9319068 43.4226267,21.5598423 42.1506964,18.5960465 Z" id="Path" fill="#14406B"></path>
                </g>
            </g>
        </g>
    </g>
</svg>